<svg width="674" height="674" viewBox="0 0 674 674" fill="none" xmlns="http://www.w3.org/2000/svg">
<path d="M336.89 673.78C522.95 673.78 673.78 522.95 673.78 336.89C673.78 150.83 522.95 0 336.89 0C150.83 0 0 150.83 0 336.89C0 522.95 150.83 673.78 336.89 673.78Z" fill="#F18F21"/>
<path d="M142.59 198.01C218.72 88.0401 374.79 63.7901 481.27 145.42C551.06 198.93 583.86 285.4 570.5 372.4H570.49L103.47 372.41C95.2501 311.2 107.38 248.87 142.59 198.01ZM500.22 298.9C472.53 177.76 330.1 125.43 231.6 204.88C201.69 229.01 183.01 261.76 173.73 298.9H276V342.97C276 345.18 277.79 346.97 280 346.97C282.21 346.97 284 345.18 284 342.97V298.9H304.55V342.97C304.55 345.18 306.34 346.97 308.55 346.97C310.76 346.97 312.55 345.18 312.55 342.97V298.9H333.1V356.01C333.1 358.22 334.89 360.01 337.1 360.01C339.31 360.01 341.1 358.22 341.1 356.01V298.9H361.65V342.97C361.65 345.18 363.44 346.97 365.65 346.97C367.86 346.97 369.65 345.18 369.65 342.97V298.9H390.2V342.97C390.2 345.18 391.99 346.97 394.2 346.97C396.41 346.97 398.2 345.18 398.2 342.97V298.9H500.22Z" fill="white"/>
<path d="M183.06 416.8C208.87 464.08 253.48 498.5 307.27 507.21C376.78 518.46 436.83 489.11 477 433.3C478.8 430.8 487.63 416 488.66 415.75L549.5 447.35C522.29 500.87 474.11 542.44 418.01 563.5C307.13 605.12 175.25 552.5 123.8 446.46L183.06 416.81V416.8Z" fill="white"/>
</svg>
