<svg width="3327" height="674" viewBox="0 0 3327 674" fill="none" xmlns="http://www.w3.org/2000/svg">
<g clip-path="url(#clip0_12_7)">
<path d="M336.89 673.78C522.95 673.78 673.78 522.95 673.78 336.89C673.78 150.83 522.95 0 336.89 0C150.83 0 0 150.83 0 336.89C0 522.95 150.83 673.78 336.89 673.78Z" fill="#F18F21"/>
<path d="M142.59 198.01C218.72 88.0401 374.79 63.7901 481.27 145.42C551.06 198.93 583.86 285.4 570.5 372.4H570.49L103.47 372.41C95.2501 311.2 107.38 248.87 142.59 198.01ZM500.22 298.9C472.53 177.76 330.1 125.43 231.6 204.88C201.69 229.01 183.01 261.76 173.73 298.9H276V342.97C276 345.18 277.79 346.97 280 346.97C282.21 346.97 284 345.18 284 342.97V298.9H304.55V342.97C304.55 345.18 306.34 346.97 308.55 346.97C310.76 346.97 312.55 345.18 312.55 342.97V298.9H333.1V356.01C333.1 358.22 334.89 360.01 337.1 360.01C339.31 360.01 341.1 358.22 341.1 356.01V298.9H361.65V342.97C361.65 345.18 363.44 346.97 365.65 346.97C367.86 346.97 369.65 345.18 369.65 342.97V298.9H390.2V342.97C390.2 345.18 391.99 346.97 394.2 346.97C396.41 346.97 398.2 345.18 398.2 342.97V298.9H500.22Z" fill="white"/>
<path d="M183.06 416.8C208.87 464.08 253.48 498.5 307.27 507.21C376.78 518.46 436.83 489.11 477 433.3C478.8 430.8 487.63 416 488.66 415.75L549.5 447.35C522.29 500.87 474.11 542.44 418.01 563.5C307.13 605.12 175.25 552.5 123.8 446.46L183.06 416.81V416.8Z" fill="white"/>
<path d="M916.86 157.619V199.079H983.73V237.619H916.86V282.589H992.49V322.589H866.93V117.609H992.49V157.609H916.86V157.619Z" fill="black"/>
<path d="M1152.5 286.389H1076L1063.74 322.599H1011.47L1085.64 117.619H1143.46L1217.63 322.599H1164.78L1152.52 286.389H1152.5ZM1139.65 247.849L1114.25 172.809L1089.14 247.849H1139.66H1139.65Z" fill="black"/>
<path d="M1273.97 317.339C1262.09 312.479 1252.6 305.269 1245.5 295.729C1238.39 286.189 1234.65 274.709 1234.26 261.269H1287.4C1288.18 268.859 1290.8 274.659 1295.28 278.639C1299.76 282.629 1305.6 284.629 1312.8 284.629C1320 284.629 1326.04 282.929 1330.32 279.519C1334.6 276.119 1336.74 271.389 1336.74 265.359C1336.74 260.299 1335.03 256.119 1331.63 252.799C1328.22 249.489 1324.04 246.769 1319.07 244.619C1314.11 242.479 1307.05 240.049 1297.9 237.319C1284.66 233.229 1273.86 229.139 1265.49 225.059C1257.12 220.969 1249.91 214.939 1243.88 206.959C1237.84 198.979 1234.83 188.559 1234.83 175.719C1234.83 156.639 1241.74 141.699 1255.56 130.899C1269.38 120.099 1287.39 114.689 1309.58 114.689C1331.77 114.689 1350.36 120.089 1364.18 130.899C1378 141.699 1385.4 156.739 1386.37 176.009H1332.35C1331.96 169.389 1329.53 164.179 1325.05 160.389C1320.57 156.589 1314.83 154.699 1307.82 154.699C1301.78 154.699 1296.92 156.309 1293.22 159.519C1289.52 162.729 1287.67 167.359 1287.67 173.389C1287.67 180.009 1290.78 185.169 1297.01 188.869C1303.24 192.569 1312.97 196.559 1326.21 200.839C1339.45 205.319 1350.2 209.599 1358.48 213.689C1366.75 217.779 1373.91 223.719 1379.94 231.499C1385.97 239.289 1388.99 249.309 1388.99 261.579C1388.99 273.849 1386.02 283.869 1380.08 293.409C1374.14 302.949 1365.53 310.539 1354.24 316.189C1342.95 321.839 1329.61 324.659 1314.24 324.659C1298.87 324.659 1285.82 322.229 1273.94 317.359L1273.97 317.339Z" fill="black"/>
<path d="M1595.46 117.609L1524.5 254.849V322.589H1474.57V254.849L1403.61 117.609H1460.26L1499.97 203.459L1539.39 117.609H1595.45H1595.46Z" fill="black"/>
<path d="M1711.38 317.339C1699.5 312.479 1690.01 305.269 1682.91 295.729C1675.8 286.189 1672.06 274.709 1671.67 261.269H1724.81C1725.59 268.859 1728.21 274.659 1732.69 278.639C1737.17 282.629 1743.01 284.629 1750.21 284.629C1757.41 284.629 1763.45 282.929 1767.73 279.519C1772.01 276.119 1774.15 271.389 1774.15 265.359C1774.15 260.299 1772.44 256.119 1769.04 252.799C1765.63 249.489 1761.45 246.769 1756.48 244.619C1751.52 242.479 1744.46 240.049 1735.31 237.319C1722.07 233.229 1711.27 229.139 1702.9 225.059C1694.53 220.969 1687.32 214.939 1681.29 206.959C1675.25 198.979 1672.24 188.559 1672.24 175.719C1672.24 156.639 1679.15 141.699 1692.97 130.899C1706.79 120.099 1724.8 114.689 1746.99 114.689C1769.18 114.689 1787.77 120.089 1801.59 130.899C1815.41 141.699 1822.81 156.739 1823.78 176.009H1769.76C1769.37 169.389 1766.94 164.179 1762.46 160.389C1757.98 156.589 1752.24 154.699 1745.23 154.699C1739.19 154.699 1734.33 156.309 1730.63 159.519C1726.93 162.729 1725.08 167.359 1725.08 173.389C1725.08 180.009 1728.19 185.169 1734.42 188.869C1740.65 192.569 1750.38 196.559 1763.62 200.839C1776.86 205.319 1787.61 209.599 1795.89 213.689C1804.16 217.779 1811.32 223.719 1817.35 231.499C1823.38 239.289 1826.4 249.309 1826.4 261.579C1826.4 273.849 1823.43 283.869 1817.49 293.409C1811.55 302.949 1802.94 310.539 1791.65 316.189C1780.36 321.839 1767.02 324.659 1751.65 324.659C1736.28 324.659 1723.23 322.229 1711.35 317.359L1711.38 317.339Z" fill="black"/>
<path d="M1907.01 117.609V322.589H1857.08V117.609H1907.01Z" fill="black"/>
<path d="M1996.37 281.719H2084.55V322.599H1939.72V284.639L2027.32 158.499H1939.72V117.619H2084.55V155.579L1996.37 281.719Z" fill="black"/>
<path d="M2167.18 157.619V199.079H2234.05V237.619H2167.18V282.589H2242.81V322.589H2117.25V117.609H2242.81V157.609H2167.18V157.619Z" fill="black"/>
<path d="M2341.79 165.649C2350.55 149.789 2362.76 137.429 2378.44 128.569C2394.11 119.709 2411.87 115.279 2431.73 115.279C2456.06 115.279 2476.89 121.699 2494.22 134.549C2511.54 147.399 2523.13 164.919 2528.97 187.109H2474.07C2469.98 178.549 2464.19 172.029 2456.7 167.549C2449.2 163.069 2440.69 160.829 2431.15 160.829C2415.77 160.829 2403.31 166.189 2393.77 176.889C2384.23 187.599 2379.46 201.909 2379.46 219.809C2379.46 237.709 2384.23 252.029 2393.77 262.729C2403.31 273.439 2415.77 278.789 2431.15 278.789C2440.69 278.789 2449.2 276.549 2456.7 272.069C2464.19 267.589 2469.99 261.069 2474.07 252.509H2528.97C2523.13 274.699 2511.55 292.179 2494.22 304.919C2476.89 317.669 2456.06 324.049 2431.73 324.049C2411.87 324.049 2394.11 319.619 2378.44 310.759C2362.77 301.899 2350.55 289.589 2341.79 273.819C2333.03 258.049 2328.65 240.049 2328.65 219.799C2328.65 199.549 2333.03 181.499 2341.79 165.629V165.649Z" fill="black"/>
<path d="M2737.16 117.609V322.589H2687.23V238.199H2609.56V322.589H2559.63V117.609H2609.56V197.909H2687.23V117.609H2737.16Z" fill="black"/>
<path d="M2900.67 286.389H2824.17L2811.91 322.599H2759.64L2833.81 117.619H2891.63L2965.8 322.599H2912.95L2900.69 286.389H2900.67ZM2887.83 247.849L2862.43 172.809L2837.32 247.849H2887.84H2887.83Z" fill="black"/>
<path d="M3092.81 322.599L3050.18 245.219H3038.21V322.599H2988.28V117.609H3072.08C3088.24 117.609 3102.01 120.429 3113.4 126.079C3124.79 131.729 3133.3 139.469 3138.95 149.289C3144.59 159.119 3147.42 170.069 3147.42 182.139C3147.42 195.769 3143.57 207.939 3135.89 218.639C3128.2 229.349 3116.86 236.939 3101.87 241.419L3149.17 322.599H3092.81ZM3038.21 209.889H3069.16C3078.31 209.889 3085.17 207.649 3089.75 203.169C3094.32 198.689 3096.61 192.369 3096.61 184.189C3096.61 176.009 3094.32 170.269 3089.75 165.789C3085.17 161.309 3078.31 159.069 3069.16 159.069H3038.21V209.879V209.889Z" fill="black"/>
<path d="M3326.12 117.609V157.609H3271.81V322.589H3221.88V157.609H3167.57V117.609H3326.13H3326.12Z" fill="black"/>
<path d="M1486.3 469.499C1490.43 474.429 1492.49 480.169 1492.49 486.709C1492.49 492.049 1491.15 496.849 1488.49 501.129C1485.82 505.409 1481.92 508.779 1476.79 511.249C1471.66 513.719 1465.51 514.949 1458.37 514.949H1421.83V409.399H1457.32C1467.99 409.399 1476.12 411.869 1481.71 416.799C1487.3 421.729 1490.09 428.129 1490.09 435.979C1490.09 442.519 1488.33 447.829 1484.8 451.909C1481.28 455.989 1476.75 458.829 1471.21 460.439C1477.15 461.549 1482.18 464.569 1486.31 469.499H1486.3ZM1432.4 456.059H1457.01C1464.16 456.059 1469.67 454.379 1473.55 450.999C1477.42 447.629 1479.36 442.969 1479.36 437.029C1479.36 431.089 1477.42 426.609 1473.55 423.289C1469.67 419.969 1464.01 418.309 1456.56 418.309H1432.4V456.059ZM1475.51 500.599C1479.79 496.979 1481.93 491.989 1481.93 485.649C1481.93 479.309 1479.69 474.249 1475.21 470.469C1470.73 466.699 1464.71 464.809 1457.17 464.809H1432.41V506.029H1457.63C1465.28 506.029 1471.24 504.219 1475.52 500.589L1475.51 500.599Z" fill="#F18F21"/>
<path d="M1581.73 409.399L1547.91 473.879V514.949H1537.34V473.879L1503.21 409.399H1515.14L1542.62 464.209L1569.95 409.399H1581.73Z" fill="#F18F21"/>
<path d="M1699.81 415.739C1708.16 419.969 1714.56 426.059 1718.99 434.009C1723.42 441.959 1725.63 451.429 1725.63 462.399C1725.63 473.369 1723.41 482.659 1718.99 490.559C1714.56 498.459 1708.17 504.499 1699.81 508.679C1691.45 512.859 1681.44 514.949 1669.76 514.949H1638.5V409.399H1669.76C1681.44 409.399 1691.45 411.509 1699.81 415.739ZM1703.36 494.639C1711.06 486.939 1714.91 476.189 1714.91 462.399C1714.91 448.609 1711.06 437.659 1703.36 429.859C1695.66 422.059 1684.46 418.159 1669.76 418.159H1649.07V506.189H1669.76C1684.46 506.189 1695.66 502.339 1703.36 494.639Z" fill="#F18F21"/>
<path d="M1755.68 409.399V514.949H1745.11V409.399H1755.68Z" fill="#F18F21"/>
<path d="M1841.45 409.399V418.159H1812.16V514.949H1801.59V418.159H1772.15V409.399H1841.46H1841.45Z" fill="#F18F21"/>
<path d="M1910.15 409.399V514.949H1899.58V409.399H1910.15Z" fill="#F18F21"/>
<path d="M2013.74 514.949H2003.17L1944.73 426.159V514.949H1934.16V409.399H1944.73L2003.17 498.039V409.399H2013.74V514.949Z" fill="#F18F21"/>
<path d="M2099.5 409.399V418.159H2070.21V514.949H2059.64V418.159H2030.2V409.399H2099.51H2099.5Z" fill="#F18F21"/>
<path d="M2126.83 417.999V457.409H2166.84V466.169H2126.83V506.189H2171.37V514.949H2116.25V409.249H2171.37V418.009H2126.83V417.999Z" fill="#F18F21"/>
<path d="M2248.38 514.949L2222.26 470.859H2202.78V514.949H2192.21V409.399H2223.92C2235.7 409.399 2244.63 412.219 2250.72 417.859C2256.81 423.499 2259.85 430.899 2259.85 440.059C2259.85 447.709 2257.66 454.229 2253.28 459.609C2248.9 464.999 2242.43 468.499 2233.88 470.109L2261.06 514.959H2248.38V514.949ZM2202.78 462.249H2224.07C2232.32 462.249 2238.54 460.239 2242.72 456.209C2246.9 452.189 2248.99 446.799 2248.99 440.049C2248.99 433.299 2246.97 427.739 2242.95 423.969C2238.92 420.189 2232.58 418.309 2223.92 418.309H2202.78V462.249Z" fill="#F18F21"/>
<path d="M2342 489.88H2293.98L2284.77 514.95H2273.6L2312.1 410.76H2324.03L2362.38 514.95H2351.21L2342 489.88ZM2338.83 481.12L2317.99 424.04L2297.15 481.12H2338.83Z" fill="#F18F21"/>
<path d="M2381.26 434.239C2385.79 426.039 2391.98 419.649 2399.83 415.059C2407.68 410.479 2416.44 408.189 2426.1 408.189C2437.88 408.189 2447.97 410.979 2456.38 416.569C2464.78 422.159 2470.9 430.039 2474.73 440.199H2462.35C2459.33 433.049 2454.73 427.469 2448.53 423.439C2442.34 419.409 2434.86 417.399 2426.11 417.399C2418.36 417.399 2411.39 419.209 2405.2 422.839C2399.01 426.469 2394.15 431.669 2390.63 438.469C2387.1 445.259 2385.34 453.139 2385.34 462.099C2385.34 471.059 2387.1 478.909 2390.63 485.659C2394.15 492.409 2399.01 497.589 2405.2 501.209C2411.39 504.829 2418.36 506.649 2426.11 506.649C2434.87 506.649 2442.34 504.659 2448.53 500.689C2454.72 496.709 2459.33 491.199 2462.35 484.159H2474.73C2470.9 494.229 2464.76 502.029 2456.31 507.559C2447.85 513.099 2437.79 515.869 2426.11 515.869C2416.45 515.869 2407.69 513.579 2399.84 508.999C2391.99 504.419 2385.8 498.049 2381.27 489.899C2376.74 481.749 2374.48 472.489 2374.48 462.119C2374.48 451.749 2376.74 442.469 2381.27 434.259L2381.26 434.239Z" fill="#F18F21"/>
<path d="M2557.48 409.399V418.159H2528.19V514.949H2517.62V418.159H2488.18V409.399H2557.49H2557.48Z" fill="#F18F21"/>
<path d="M2584.81 409.399V514.949H2574.24V409.399H2584.81Z" fill="#F18F21"/>
<path d="M2692.47 409.399L2652.45 514.949H2640.37L2600.36 409.399H2611.84L2646.42 503.469L2681.3 409.399H2692.47Z" fill="#F18F21"/>
<path d="M2718.89 417.999V457.409H2758.9V466.169H2718.89V506.189H2763.43V514.949H2708.31V409.249H2763.43V418.009H2718.89V417.999Z" fill="#F18F21"/>
<path d="M866.92 463.52H1393.14" stroke="#F18F21" stroke-width="8" stroke-miterlimit="10"/>
<path d="M2787.78 463.52H3311.35" stroke="#F18F21" stroke-width="8" stroke-miterlimit="10"/>
</g>
<defs>
<clipPath id="clip0_12_7">
<rect width="3326.12" height="673.78" fill="white"/>
</clipPath>
</defs>
</svg>
